HIERARCHY
ROOT SimulationBone
{
	OFFSET 0.000000 0.000000 0.000000
	CHANNELS 6 Xposition Yposition Zposition Zrotation Yrotation Xrotation 
	JOINT Hips
	{
		OFFSET 0.000000 0.000000 0.000000
		CHANNELS 6 Xposition Yposition Zposition Zrotation Yrotation Xrotation 
		JOINT LeftUpLeg
		{
			OFFSET 0.103459 1.857842 10.548500
			CHANNELS 3 Zrotation Yrotation Xrotation
			JOINT LeftLeg
			{
				OFFSET 43.500008 -0.000042 -0.000011
				CHANNELS 3 Zrotation Yrotation Xrotation
				JOINT LeftFoot
				{
					OFFSET 42.372200 0.000000 0.000010
					CHANNELS 3 Zrotation Yrotation Xrotation
					JOINT LeftToe
					{
						OFFSET 17.300018 0.000008 -0.000006
						CHANNELS 3 Zrotation Yrotation Xrotation
						End Site
						{
							OFFSET 0.000000 0.000000 0.000000
						}
					}
				}
			}
		}
		JOINT RightUpLeg
		{
			OFFSET 0.103459 1.857820 -10.548510
			CHANNELS 3 Zrotation Yrotation Xrotation
			JOINT RightLeg
			{
				OFFSET 43.500038 -0.000004 -0.000004
				CHANNELS 3 Zrotation Yrotation Xrotation
				JOINT RightFoot
				{
					OFFSET 42.372261 -0.000019 0.000015
					CHANNELS 3 Zrotation Yrotation Xrotation
					JOINT RightToe
					{
						OFFSET 17.300003 -0.000001 0.000006
						CHANNELS 3 Zrotation Yrotation Xrotation
						End Site
						{
							OFFSET 0.000000 0.000000 0.000000
						}
					}
				}
			}
		}
		JOINT Spine
		{
			OFFSET 6.901967 -2.603730 -0.000004
			CHANNELS 3 Zrotation Yrotation Xrotation
			JOINT Spine1
			{
				OFFSET 12.588097 -0.000009 0.000008
				CHANNELS 3 Zrotation Yrotation Xrotation
				JOINT Spine2
				{
					OFFSET 12.343205 0.000003 -0.000002
					CHANNELS 3 Zrotation Yrotation Xrotation
					JOINT Neck
					{
						OFFSET 25.832899 -0.000006 0.000003
						CHANNELS 3 Zrotation Yrotation Xrotation
						JOINT Head
						{
							OFFSET 11.766611 0.000013 0.000001
							CHANNELS 3 Zrotation Yrotation Xrotation
							End Site
							{
								OFFSET 0.000000 0.000000 0.000000
							}
						}
					}
					JOINT LeftShoulder
					{
						OFFSET 19.745903 -1.480350 6.000102
						CHANNELS 3 Zrotation Yrotation Xrotation
						JOINT LeftArm
						{
							OFFSET 11.284125 -0.000002 -0.000024
							CHANNELS 3 Zrotation Yrotation Xrotation
							JOINT LeftForeArm
							{
								OFFSET 33.000050 0.000009 0.000033
								CHANNELS 3 Zrotation Yrotation Xrotation
								JOINT LeftHand
								{
									OFFSET 25.200012 0.000010 -0.000003
									CHANNELS 3 Zrotation Yrotation Xrotation
									End Site
									{
										OFFSET 0.000000 0.000000 0.000000
									}
								}
							}
						}
					}
					JOINT RightShoulder
					{
						OFFSET 19.746105 -1.480362 -6.000072
						CHANNELS 3 Zrotation Yrotation Xrotation
						JOINT RightArm
						{
							OFFSET 11.284140 -0.000003 -0.000004
							CHANNELS 3 Zrotation Yrotation Xrotation
							JOINT RightForeArm
							{
								OFFSET 33.000099 0.000013 0.000007
								CHANNELS 3 Zrotation Yrotation Xrotation
								JOINT RightHand
								{
									OFFSET 25.199776 0.000126 0.000428
									CHANNELS 3 Zrotation Yrotation Xrotation
									End Site
									{
										OFFSET 0.000000 0.000000 0.000000
									}
								}
							}
						}
					}
				}
			}
		}
	}
}
MOTION
Frames: 5
Frame Time: 0.033333
287.178835 0.000000 350.172111 0.000000 221.417787 0.000000 1.324903 89.241409 2.750195 93.404942 9.191946 178.554743 175.904869 -7.497505 171.416315 -61.233336 2.032919 -12.233793 73.515245 7.446091 -4.072407 21.454563 0.003110 0.000017 173.915563 -15.466709 169.021774 -22.002457 5.749214 -1.187350 75.738287 -2.017237 -9.262244 21.454551 -0.003090 0.000000 6.950704 2.650517 -2.424518 3.780671 5.377844 -4.767347 3.462270 5.348849 -4.799722 -22.869644 21.918724 -0.466846 10.294184 -28.443208 10.960657 155.064815 -80.078197 23.763809 19.280569 66.742840 47.272528 -47.471174 -21.204343 2.112267 3.647827 -6.093605 28.202339 -151.052994 79.987335 30.956746 -29.735980 -59.588927 -19.804033 -22.522151 12.320883 -0.934721 16.986679 -8.574584 -59.397190 
285.862872 0.000000 351.423740 0.000000 220.101895 0.000000 1.412327 89.358810 2.553110 93.801666 8.452229 178.921273 170.600722 -6.716793 174.543080 -70.430896 2.354945 -11.405391 74.560257 7.151883 -3.015888 21.454553 0.003105 0.000016 175.511287 -14.710199 167.685188 -22.020233 5.869638 -1.157135 76.631717 -2.004965 -9.409401 21.454550 -0.003099 0.000000 6.936842 2.442815 -2.112673 3.774596 4.952401 -4.149316 3.456126 4.927135 -4.179140 -22.062271 22.188935 0.942805 10.168833 -29.517670 12.403100 162.439438 -79.915249 16.299806 18.428243 66.053817 46.902817 -49.367764 -20.740307 2.142879 0.830329 -10.167057 24.929840 -152.134992 80.214978 29.852472 -31.426448 -59.563812 -19.762177 -23.625447 12.729633 -0.976409 15.408668 -6.990511 -56.067322 
284.521935 0.000000 352.685308 0.000000 218.857821 0.000000 1.402237 89.209610 2.311349 94.668879 7.526361 179.018563 166.093303 -5.371201 177.516384 -77.512450 2.432740 -12.040164 76.260169 7.875482 -2.035213 21.454565 0.003106 0.000020 176.469234 -14.143411 166.669252 -24.305720 5.514127 -1.387066 78.320393 -1.710053 -9.482825 21.454557 -0.003097 -0.000002 7.120344 2.118441 -1.679358 4.169123 4.295386 -3.284344 3.850631 4.275348 -3.310228 -21.750794 21.504960 1.864796 9.796779 -28.852440 12.982628 170.110998 -79.057759 8.546137 16.355991 64.819124 44.250583 -51.836396 -20.522092 2.211450 -1.637199 -10.452571 25.461842 -155.314117 80.470714 26.620889 -33.471455 -59.464310 -17.967603 -25.095729 12.746098 -0.999538 13.398482 -5.317908 -51.096205 
283.155262 0.000000 353.956058 0.000000 217.685587 0.000000 1.218671 88.884033 2.024673 95.586815 6.368834 178.775221 162.160220 -3.766203 -179.973463 -81.845522 2.725200 -12.690606 77.271726 8.312828 -2.082556 21.454565 0.003107 0.000018 177.104073 -13.243895 164.860153 -27.215606 5.802144 -1.241322 80.496928 -1.680089 -9.698090 21.454553 -0.003088 0.000001 7.405733 1.686701 -1.152554 4.767340 3.419095 -2.236152 4.448891 3.405391 -2.256777 -22.010165 20.208196 2.305452 9.292828 -27.401809 12.918262 174.442786 -78.298372 4.163650 13.900807 64.367839 40.604064 -53.091737 -20.452030 2.250316 -5.414663 -11.457164 28.367244 -157.828391 81.208265 24.056987 -37.198255 -59.873650 -14.947930 -26.154837 12.775175 -1.018295 10.641420 -3.553892 -45.304505 
281.762090 0.000000 355.235238 0.000000 216.584662 0.000000 0.997697 88.662880 1.779965 96.235120 5.389945 178.868153 158.575163 -2.206803 -177.067286 -83.150054 2.893377 -11.873080 77.080652 8.071889 -0.793424 21.454558 0.003112 0.000017 178.104805 -12.500505 163.038787 -28.838797 5.966848 -0.828614 82.228238 -1.820622 -9.724986 21.454551 -0.003091 -0.000001 7.672807 1.295392 -0.645063 5.320084 2.618909 -1.230563 5.001696 2.611288 -1.246369 -23.070117 18.446005 2.328204 9.571581 -25.810248 12.187519 178.367986 -77.835190 0.178047 10.994151 64.943337 37.688485 -52.850136 -21.040261 2.281798 -7.756009 -14.124188 29.735963 -160.605341 82.411676 21.226232 -40.656295 -60.703443 -11.984689 -28.269321 13.176414 -1.080307 8.567870 -1.540064 -41.582151 
